<svg viewBox="0 0 330 200" xmlns="http://www.w3.org/2000/svg"><g><g><g><g><g><line x1="30" y1="178" x2="25" y2="178" style="visibility: inherit;" fill="rgb(0, 0, 0)" stroke="rgb(204, 204, 204)" stroke-width="1px"></line><line x1="30" y1="164.30769230769232" x2="25" y2="164.30769230769232" style="visibility: inherit;" fill="rgb(0, 0, 0)" stroke="rgb(204, 204, 204)" stroke-width="1px"></line><line x1="30" y1="150.6153846153846" x2="25" y2="150.6153846153846" style="visibility: inherit;" fill="rgb(0, 0, 0)" stroke="rgb(204, 204, 204)" stroke-width="1px"></line><line x1="30" y1="136.9230769230769" x2="25" y2="136.9230769230769" style="visibility: inherit;" fill="rgb(0, 0, 0)" stroke="rgb(204, 204, 204)" stroke-width="1px"></line><line x1="30" y1="123.23076923076923" x2="25" y2="123.23076923076923" style="visibility: inherit;" fill="rgb(0, 0, 0)" stroke="rgb(204, 204, 204)" stroke-width="1px"></line><line x1="30" y1="109.53846153846153" x2="25" y2="109.53846153846153" style="visibility: inherit;" fill="rgb(0, 0, 0)" stroke="rgb(204, 204, 204)" stroke-width="1px"></line><line x1="30" y1="95.84615384615384" x2="25" y2="95.84615384615384" style="visibility: inherit;" fill="rgb(0, 0, 0)" stroke="rgb(204, 204, 204)" stroke-width="1px"></line><line x1="30" y1="82.15384615384616" x2="25" y2="82.15384615384616" style="visibility: inherit;" fill="rgb(0, 0, 0)" stroke="rgb(204, 204, 204)" stroke-width="1px"></line><line x1="30" y1="68.46153846153845" x2="25" y2="68.46153846153845" style="visibility: inherit;" fill="rgb(0, 0, 0)" stroke="rgb(204, 204, 204)" stroke-width="1px"></line><line x1="30" y1="54.769230769230774" x2="25" y2="54.769230769230774" style="visibility: inherit;" fill="rgb(0, 0, 0)" stroke="rgb(204, 204, 204)" stroke-width="1px"></line><line x1="30" y1="41.076923076923066" x2="25" y2="41.076923076923066" style="visibility: inherit;" fill="rgb(0, 0, 0)" stroke="rgb(204, 204, 204)" stroke-width="1px"></line><line x1="30" y1="27.384615384615387" x2="25" y2="27.384615384615387" style="visibility: inherit;" fill="rgb(0, 0, 0)" stroke="rgb(204, 204, 204)" stroke-width="1px"></line><line x1="30" y1="13.69230769230768" x2="25" y2="13.69230769230768" style="visibility: inherit;" fill="rgb(0, 0, 0)" stroke="rgb(204, 204, 204)" stroke-width="1px"></line><line x1="30" y1="0" x2="25" y2="0" style="visibility: inherit;" fill="rgb(0, 0, 0)" stroke="rgb(204, 204, 204)" stroke-width="1px"></line></g><g transform="translate(20, 0)"><text x="0" y="178" dx="0em" dy="0.3em" style="text-anchor: end; visibility: hidden; font-family: &quot;Helvetica Neue&quot;, sans-serif; font-size: 12px; font-weight: 200;" fill="rgb(50, 49, 63)" stroke="none" stroke-width="1px">-1</text><text x="0" y="164.30769230769232" dx="0em" dy="0.3em" style="text-anchor: end; visibility: inherit; font-family: &quot;Helvetica Neue&quot;, sans-serif; font-size: 12px; font-weight: 200;" fill="rgb(50, 49, 63)" stroke="none" stroke-width="1px">0</text><text x="0" y="150.6153846153846" dx="0em" dy="0.3em" style="text-anchor: end; visibility: hidden; font-family: &quot;Helvetica Neue&quot;, sans-serif; font-size: 12px; font-weight: 200;" fill="rgb(50, 49, 63)" stroke="none" stroke-width="1px">1</text><text x="0" y="136.9230769230769" dx="0em" dy="0.3em" style="text-anchor: end; visibility: inherit; font-family: &quot;Helvetica Neue&quot;, sans-serif; font-size: 12px; font-weight: 200;" fill="rgb(50, 49, 63)" stroke="none" stroke-width="1px">2</text><text x="0" y="123.23076923076923" dx="0em" dy="0.3em" style="text-anchor: end; visibility: hidden; font-family: &quot;Helvetica Neue&quot;, sans-serif; font-size: 12px; font-weight: 200;" fill="rgb(50, 49, 63)" stroke="none" stroke-width="1px">3</text><text x="0" y="109.53846153846153" dx="0em" dy="0.3em" style="text-anchor: end; visibility: inherit; font-family: &quot;Helvetica Neue&quot;, sans-serif; font-size: 12px; font-weight: 200;" fill="rgb(50, 49, 63)" stroke="none" stroke-width="1px">4</text><text x="0" y="95.84615384615384" dx="0em" dy="0.3em" style="text-anchor: end; visibility: hidden; font-family: &quot;Helvetica Neue&quot;, sans-serif; font-size: 12px; font-weight: 200;" fill="rgb(50, 49, 63)" stroke="none" stroke-width="1px">5</text><text x="0" y="82.15384615384616" dx="0em" dy="0.3em" style="text-anchor: end; visibility: inherit; font-family: &quot;Helvetica Neue&quot;, sans-serif; font-size: 12px; font-weight: 200;" fill="rgb(50, 49, 63)" stroke="none" stroke-width="1px">6</text><text x="0" y="68.46153846153845" dx="0em" dy="0.3em" style="text-anchor: end; visibility: hidden; font-family: &quot;Helvetica Neue&quot;, sans-serif; font-size: 12px; font-weight: 200;" fill="rgb(50, 49, 63)" stroke="none" stroke-width="1px">7</text><text x="0" y="54.769230769230774" dx="0em" dy="0.3em" style="text-anchor: end; visibility: inherit; font-family: &quot;Helvetica Neue&quot;, sans-serif; font-size: 12px; font-weight: 200;" fill="rgb(50, 49, 63)" stroke="none" stroke-width="1px">8</text><text x="0" y="41.076923076923066" dx="0em" dy="0.3em" style="text-anchor: end; visibility: hidden; font-family: &quot;Helvetica Neue&quot;, sans-serif; font-size: 12px; font-weight: 200;" fill="rgb(50, 49, 63)" stroke="none" stroke-width="1px">9</text><text x="0" y="27.384615384615387" dx="0em" dy="0.3em" style="text-anchor: end; visibility: inherit; font-family: &quot;Helvetica Neue&quot;, sans-serif; font-size: 12px; font-weight: 200;" fill="rgb(50, 49, 63)" stroke="none" stroke-width="1px">10</text><text x="0" y="13.69230769230768" dx="0em" dy="0.3em" style="text-anchor: end; visibility: hidden; font-family: &quot;Helvetica Neue&quot;, sans-serif; font-size: 12px; font-weight: 200;" fill="rgb(50, 49, 63)" stroke="none" stroke-width="1px">11</text><text x="0" y="0" dx="0em" dy="0.3em" style="text-anchor: end; visibility: hidden; font-family: &quot;Helvetica Neue&quot;, sans-serif; font-size: 12px; font-weight: 200;" fill="rgb(50, 49, 63)" stroke="none" stroke-width="1px">12</text></g><line x1="30" y1="0" x2="30" y2="178" fill="rgb(0, 0, 0)" stroke="rgb(204, 204, 204)" stroke-width="1px"></line></g></g><g transform="translate(30, 0)" clip-path="url(#clip_0)"><clipPath id="clip_0"><rect width="300" height="178"></rect></clipPath><g><g><g><line x1="0" y1="0" x2="0" y2="178" fill="rgb(0, 0, 0)" stroke="rgb(60, 60, 60)" stroke-width="1px" opacity="0.25"></line><line x1="25" y1="0" x2="25" y2="178" fill="rgb(0, 0, 0)" stroke="rgb(60, 60, 60)" stroke-width="1px" opacity="0.25"></line><line x1="50" y1="0" x2="50" y2="178" fill="rgb(0, 0, 0)" stroke="rgb(60, 60, 60)" stroke-width="1px" opacity="0.25"></line><line x1="75" y1="0" x2="75" y2="178" fill="rgb(0, 0, 0)" stroke="rgb(60, 60, 60)" stroke-width="1px" opacity="0.25"></line><line x1="100" y1="0" x2="100" y2="178" fill="rgb(0, 0, 0)" stroke="rgb(60, 60, 60)" stroke-width="1px" opacity="0.25"></line><line x1="125" y1="0" x2="125" y2="178" fill="rgb(0, 0, 0)" stroke="rgb(60, 60, 60)" stroke-width="1px" opacity="0.25"></line><line x1="150" y1="0" x2="150" y2="178" fill="rgb(0, 0, 0)" stroke="rgb(60, 60, 60)" stroke-width="1px" opacity="0.25"></line><line x1="175" y1="0" x2="175" y2="178" fill="rgb(0, 0, 0)" stroke="rgb(60, 60, 60)" stroke-width="1px" opacity="0.25"></line><line x1="200" y1="0" x2="200" y2="178" fill="rgb(0, 0, 0)" stroke="rgb(60, 60, 60)" stroke-width="1px" opacity="0.25"></line><line x1="225" y1="0" x2="225" y2="178" fill="rgb(0, 0, 0)" stroke="rgb(60, 60, 60)" stroke-width="1px" opacity="0.25"></line><line x1="250" y1="0" x2="250" y2="178" fill="rgb(0, 0, 0)" stroke="rgb(60, 60, 60)" stroke-width="1px" opacity="0.25"></line><line x1="275" y1="0" x2="275" y2="178" fill="rgb(0, 0, 0)" stroke="rgb(60, 60, 60)" stroke-width="1px" opacity="0.25"></line><line x1="300" y1="0" x2="300" y2="178" fill="rgb(0, 0, 0)" stroke="rgb(60, 60, 60)" stroke-width="1px" opacity="0.25"></line></g><g><line x1="0" y1="178" x2="300" y2="178" fill="rgb(0, 0, 0)" stroke="rgb(60, 60, 60)" stroke-width="1px" opacity="0.25"></line><line x1="0" y1="164.30769230769232" x2="300" y2="164.30769230769232" fill="rgb(0, 0, 0)" stroke="rgb(60, 60, 60)" stroke-width="1px" opacity="0.25"></line><line x1="0" y1="150.6153846153846" x2="300" y2="150.6153846153846" fill="rgb(0, 0, 0)" stroke="rgb(60, 60, 60)" stroke-width="1px" opacity="0.25"></line><line x1="0" y1="136.9230769230769" x2="300" y2="136.9230769230769" fill="rgb(0, 0, 0)" stroke="rgb(60, 60, 60)" stroke-width="1px" opacity="0.25"></line><line x1="0" y1="123.23076923076923" x2="300" y2="123.23076923076923" fill="rgb(0, 0, 0)" stroke="rgb(60, 60, 60)" stroke-width="1px" opacity="0.25"></line><line x1="0" y1="109.53846153846153" x2="300" y2="109.53846153846153" fill="rgb(0, 0, 0)" stroke="rgb(60, 60, 60)" stroke-width="1px" opacity="0.25"></line><line x1="0" y1="95.84615384615384" x2="300" y2="95.84615384615384" fill="rgb(0, 0, 0)" stroke="rgb(60, 60, 60)" stroke-width="1px" opacity="0.25"></line><line x1="0" y1="82.15384615384616" x2="300" y2="82.15384615384616" fill="rgb(0, 0, 0)" stroke="rgb(60, 60, 60)" stroke-width="1px" opacity="0.25"></line><line x1="0" y1="68.46153846153845" x2="300" y2="68.46153846153845" fill="rgb(0, 0, 0)" stroke="rgb(60, 60, 60)" stroke-width="1px" opacity="0.25"></line><line x1="0" y1="54.769230769230774" x2="300" y2="54.769230769230774" fill="rgb(0, 0, 0)" stroke="rgb(60, 60, 60)" stroke-width="1px" opacity="0.25"></line><line x1="0" y1="41.076923076923066" x2="300" y2="41.076923076923066" fill="rgb(0, 0, 0)" stroke="rgb(60, 60, 60)" stroke-width="1px" opacity="0.25"></line><line x1="0" y1="27.384615384615387" x2="300" y2="27.384615384615387" fill="rgb(0, 0, 0)" stroke="rgb(60, 60, 60)" stroke-width="1px" opacity="0.25"></line><line x1="0" y1="13.69230769230768" x2="300" y2="13.69230769230768" fill="rgb(0, 0, 0)" stroke="rgb(60, 60, 60)" stroke-width="1px" opacity="0.25"></line><line x1="0" y1="0" x2="300" y2="0" fill="rgb(0, 0, 0)" stroke="rgb(60, 60, 60)" stroke-width="1px" opacity="0.25"></line></g></g></g><g><g><line x1="0" y1="164.30769230769232" x2="300" y2="164.30769230769232" fill="rgb(0, 0, 0)" stroke="rgb(153, 153, 153)" stroke-width="1.5px"></line></g></g><g><g><line x1="25" y1="0" x2="25" y2="178" fill="rgb(0, 0, 0)" stroke="rgb(153, 153, 153)" stroke-width="1.5px"></line></g></g><g><g><g><g><g><path stroke="rgb(238, 51, 119)" stroke-width="2px" d="M25,-60.159182328444274L27.499999999999996,18.564448255759032L30,49.33260031659711L32.5,63.19593338432358L35,69.90189868236884L37.5,72.63852146516346L40,73.0938011463668L42.5,71.9037711387457L45,68.35297960512278L47.5,69.15158660964082L50,66.59892531851553L52.5,64.22102139913366L54.99999999999999,64.1039848217224L57.50000000000001,64.93989252268692L60,63.864188506365764L62.5,60.22995938433091L65,58.389008993419694L67.5,57.50850905488552L70,55.4946661327909L72.5,53.90210174821972L75,52.605596233887766L77.50000000000001,51.543857763728326L80,51.28529974964576L82.5,50.884293348366626L85,48.03329987236978L87.5,47.6413866316924L90,50.425288871187405L92.5,49.260269512328904L95,49.56628614406944L97.5,51.92998222861836L100,52.55347898051512L102.5,53.25179675221665L105,52.61016416007625L107.5,49.67092963788866L109.99999999999999,48.24807226116539L112.5,49.79966799287661L115.00000000000001,49.1042512402654L117.5,43.49134746216211L120,43.05151747242988L122.5,44.39846507651072L125,47.03201176380142L127.5,46.91222815760722L130,45.823614935209264L132.5,44.49390668578627L135,45.24566440856012L137.5,43.757966119408565L140,42.01908936396288L142.5,40.684522853342486L145,38.62659505963404L147.5,37.84227678017763L150,38.29982771455562L152.5,38.454867108845775L155.00000000000003,37.96803187747983L157.5,37.17339091322086L160,36.78223026655078L162.5,38.17407519230781L165,39.18990489791196L167.5,38.936524714118974L170,36.25683822935011L172.5,31.72062832353984L175,31.682206917313493L177.5,32.34362843176959L180,31.780979340368077L182.49999999999997,33.180286987296256L185,35.26573034010161L187.5,35.20764958054457L190,33.76223916708426L192.50000000000003,32.409088988344024L195,35.82265869883952L197.5,34.99296309462295L200,36.03655409484844L202.5,40.87744528133439L205,45.98676098265281L207.5,47.18029253272573L210,48.755701130925985L212.5,47.92515723438868L215,46.49626020601781L217.5,45.14243585336581L219.99999999999997,44.07601162657775L222.5,44.101211587856966L225,38.98612456154456L227.5,38.71625881754949L230.00000000000003,39.364201889463004L232.5,42.42473944234666L235,41.236285456649L237.5,42.868795880547395L240,4.630718434559668L242.5,17.54150015488017L245,27.103000150676763L247.5,34.16514111964659L250,34.65037069426768L252.5,37.54714920254318L255,35.94254011544493L257.5,41.199640608855304L260,44.03971492608542L262.5,45.43589883386264L265,45.16545488165394L267.5,43.489578022610914L270,43.32529541633099L272.5,43.28464592702588" style="fill: none;" fill="none"></path></g><g><path stroke="rgb(51, 187, 238)" stroke-width="2px" d="M25,-26.567458666287962L27.499999999999996,40.07532860682562L30,70.0690133066342L32.5,88.21436354666275L35,100.1125045634688L37.5,109.18863224614842L40,115.91623679621824L42.5,120.74577467748671L45,125.40384439117202L47.5,129.4115430776061L50,133.13923084996475L52.5,136.5933549711794L54.99999999999999,139.66228167151908L57.50000000000001,142.30004449323948L60,144.43302652739942L62.5,146.06982752117165L65,147.31677469551653L67.5,148.25673236599786L70,148.96087646452634L72.5,150.07446692161665L75,150.74790561746673L77.50000000000001,150.79279364978993L80,150.0784331227689L82.5,150.00938400438247L85,150.8287837851218L87.5,151.76063917975517L90,152.63650621124623L92.5,153.53850755097218L95,154.13034107530603L97.5,154.31421110347375L100,154.8387858633178L102.5,155.2989867105848L105,156.13829167445454L107.5,157.1357054321615L109.99999999999999,156.80345923747794L112.5,156.9295348967206L115.00000000000001,156.4389366724124L117.5,155.74310815550214L120,154.85130229477323L122.5,155.1158820199354L125,156.27778638921902L127.5,157.6720735482339L130,158.33928420780967L132.5,159.38159552844633L135,160.29251561505336L137.5,161.0261357900525L140,161.52859366767876L142.5,161.86611296894415L145,162.15812923821946L147.5,162.4264499004417L150,162.72997337040925L152.5,162.98312690164067L155.00000000000003,163.2095472209597L157.5,163.3416987747335L160,163.45527424663305L162.5,163.57954569997702L165,163.69594398299094L167.5,163.76739463671817L170,163.8880230651645L172.5,163.9648717228611L175,163.99868640036544L177.5,164.00028696140652L180,163.9513987113664L182.49999999999997,163.95615755262367L185,163.88766627983455L187.5,163.8727879651192L190,163.82670583890695L192.50000000000003,163.7766315663634L195,162.79905188643986L197.5,157.30696016611168L200,149.21508699508794L202.5,148.28535524335263L205,151.32755059061043L207.5,154.26355485858767L210,157.24186092965843L212.5,159.60343396507298L215,161.1955674120801L217.5,162.28521327193985L219.99999999999997,162.95001521269327L222.5,163.35339624630856L225,163.48889353266898L227.5,162.95786229422004L230.00000000000003,162.91785610430702L232.5,163.0999922152998L235,163.35875693287457L237.5,163.49208862333944L240,163.3964605279807L242.5,162.86885550446038L245,162.96306830724726L247.5,162.9999934384678L250,163.0321103038371L252.5,163.09725583711838L255,163.31183213754548L257.5,163.47705816050342L260,163.66670682620983L262.5,163.84823473328387L265,163.98984984735685L267.5,164.06206626174105L270,164.11713995215035L272.5,164.1651588282551" style="fill: none;" fill="none"></path></g></g></g></g><g opacity="0.2"><g><g><g><path stroke="rgb(238, 51, 119)" stroke-width="2px" d="M25,-60.159182328444274L27.499999999999996,65.79862660628098L30,78.87002629500168L32.5,79.49921307196985L35,78.65720697549673L37.5,76.42425595797025L40,73.74485837496243L42.5,70.16869596334604L45,63.11625179877649L47.5,70.33742493849533L50,62.79308583186224L52.5,60.667105968181914L54.99999999999999,63.9288121003371L57.50000000000001,66.19211644392746L60,62.25189693157489L62.5,54.78117884122409L65,55.62836243556097L67.5,56.18798270592322L70,52.47420853834885L72.5,51.51340073805588L75,50.660909065833465L77.50000000000001,49.95128499544583L80,50.89746783329889L82.5,50.28278849675104L85,43.75682992201584L87.5,47.0535184420072L90,54.60113510718713L92.5,47.51274226262018L95,50.025310809795684L97.5,55.47552504906287L100,53.48872390160193L102.5,54.299273270827086L105,51.647715348463805L107.5,45.26207806513861L109.99999999999999,46.113786257230316L112.5,52.12706155043381L115.00000000000001,48.06112612210788L117.5,35.07199184711163L120,42.39177249028131L122.5,46.418886478130645L125,50.98233178945688L127.5,46.73255274846002L130,44.19069510239822L132.5,42.49934431222769L135,46.37330099252554L137.5,41.526418685913086L140,39.41077423095703L142.5,38.68267308748685L145,35.539703369140625L147.5,36.66579936100885L150,38.986154116117035L152.5,38.687426200279816L155.00000000000003,37.237779030433074L157.5,35.98142946683444L160,36.195489296546356L162.5,40.261842580942016L165,40.7136494563176L167.5,38.556454438429625L170,32.237308502197266L172.5,24.91631346482498L175,31.624574807974L177.5,33.335760703453644L180,30.93700570326584L182.49999999999997,35.27924845768854L185,38.39389536930963L187.5,35.120528441209046L190,31.59412354689377L192.50000000000003,30.379363720233613L195,40.9430132645827L197.5,33.748419688298156L200,37.601940595186676L202.5,48.138782061063324L205,53.6507345346304L207.5,48.97058985783502L210,51.11881402822641L212.5,46.6793413895827L215,44.35291466346155L217.5,43.11169932438776L219.99999999999997,42.47637528639572L222.5,44.13901152977576L225,31.313494022075957L227.5,38.311460201556855L230.00000000000003,40.33611649733322L232.5,47.01554577167218L235,39.45360447810248L237.5,45.31756151639499L240,-52.72639773442194L242.5,36.90767273536096L245,41.44525014437161L247.5,44.75835257310135L250,35.37821505619928L252.5,41.89231696495642L255,33.53562648479755L257.5,49.085291348970856L260,48.2998264019306L262.5,47.53017469552847L265,44.75978895334097L267.5,40.975762734046356L270,43.07887150691107L272.5,43.2236716930683" style="fill: none;" fill="none"></path></g><g><path stroke="rgb(51, 187, 238)" stroke-width="2px" d="M25,-26.567458666287962L27.499999999999996,80.06100097069373L30,98.86295061845045L32.5,109.5532954289363L35,115.6467174750108L37.5,121.74418423726009L40,125.53681894449088L42.5,127.78728727193979L45,132.27359243539664L47.5,135.36250855372504L50,138.6969526547652L52.5,141.7557439620678L54.99999999999999,144.25565114388098L57.50000000000001,146.2515210738549L60,147.62999233832727L62.5,148.52387461295496L65,149.1866677907797L67.5,149.66643021656915L70,150.0169853430528L72.5,151.74475082067343L75,151.75802672826327L77.50000000000001,150.86012422121487L80,149.00690643603986L82.5,149.90581114475543L85,152.05787763228784L87.5,153.15841829776764L90,153.95030451737918L92.5,154.89150817577655L95,155.01809081664453L97.5,154.59001604410318L100,155.62564782912915L102.5,155.98928788992075L105,157.39724902006296L107.5,158.63182599727924L109.99999999999999,156.30508995973148L112.5,157.11864838233362L115.00000000000001,155.70303934354047L117.5,154.6993653865961L120,153.51359350864703L122.5,155.5127516067945L125,158.02064294081467L127.5,159.7635042850788L130,159.34010019669165L132.5,160.94506250894986L135,161.6588957447272L137.5,162.12656605243683L140,162.28228048407115L142.5,162.3723919208233L145,162.59615364212257L147.5,162.82893089376964L150,163.18525857535693L152.5,163.36285719848595L155.00000000000003,163.54917769993727L157.5,163.53992610539382L160,163.62563745448222L162.5,163.76595287999282L165,163.87054140751178L167.5,163.874570617309L170,164.06896570783394L172.5,164.080144709406L175,164.04940841662196L177.5,164.00268780296813L180,163.87806633630623L182.49999999999997,163.96329581450956L185,163.78492937065087L187.5,163.85047049304615L190,163.75758264958858L192.50000000000003,163.7015201575481L195,161.33268236655456L197.5,149.06882258561942L200,137.07727723855237L202.5,146.89075761574964L205,155.89084361149713L207.5,158.6675612605535L210,161.70932003626456L212.5,163.14579351819478L215,163.58376758259075L217.5,163.91968206172953L219.99999999999997,163.9472181238234L222.5,163.95846779673144L225,163.69213946220967L227.5,162.16131543654663L230.00000000000003,162.85784681943747L232.5,163.373196381789L235,163.74690400923674L237.5,163.6920861590367L240,163.25301838494264L242.5,162.0774479691799L245,163.10438751142757L247.5,163.05538113529866L250,163.080285601891L252.5,163.19497413704028L255,163.63369658818613L257.5,163.7248971949403L260,163.9511798247695L262.5,164.1205265938949L265,164.2022725184663L267.5,164.17039088331737L270,164.1997504877643L272.5,164.23718714241224" style="fill: none;" fill="none"></path></g></g></g></g></g></g><g transform="translate(30, 178)" clip-path="url(#clip_1)"><clipPath id="clip_1"><rect width="300" height="22"></rect></clipPath><g><g><line x1="0" y1="0" x2="0" y2="5" style="visibility: inherit;" fill="rgb(0, 0, 0)" stroke="rgb(204, 204, 204)" stroke-width="1px"></line><line x1="25" y1="0" x2="25" y2="5" style="visibility: inherit;" fill="rgb(0, 0, 0)" stroke="rgb(204, 204, 204)" stroke-width="1px"></line><line x1="50" y1="0" x2="50" y2="5" style="visibility: inherit;" fill="rgb(0, 0, 0)" stroke="rgb(204, 204, 204)" stroke-width="1px"></line><line x1="75" y1="0" x2="75" y2="5" style="visibility: inherit;" fill="rgb(0, 0, 0)" stroke="rgb(204, 204, 204)" stroke-width="1px"></line><line x1="100" y1="0" x2="100" y2="5" style="visibility: inherit;" fill="rgb(0, 0, 0)" stroke="rgb(204, 204, 204)" stroke-width="1px"></line><line x1="125" y1="0" x2="125" y2="5" style="visibility: inherit;" fill="rgb(0, 0, 0)" stroke="rgb(204, 204, 204)" stroke-width="1px"></line><line x1="150" y1="0" x2="150" y2="5" style="visibility: inherit;" fill="rgb(0, 0, 0)" stroke="rgb(204, 204, 204)" stroke-width="1px"></line><line x1="175" y1="0" x2="175" y2="5" style="visibility: inherit;" fill="rgb(0, 0, 0)" stroke="rgb(204, 204, 204)" stroke-width="1px"></line><line x1="200" y1="0" x2="200" y2="5" style="visibility: inherit;" fill="rgb(0, 0, 0)" stroke="rgb(204, 204, 204)" stroke-width="1px"></line><line x1="225" y1="0" x2="225" y2="5" style="visibility: inherit;" fill="rgb(0, 0, 0)" stroke="rgb(204, 204, 204)" stroke-width="1px"></line><line x1="250" y1="0" x2="250" y2="5" style="visibility: inherit;" fill="rgb(0, 0, 0)" stroke="rgb(204, 204, 204)" stroke-width="1px"></line><line x1="275" y1="0" x2="275" y2="5" style="visibility: inherit;" fill="rgb(0, 0, 0)" stroke="rgb(204, 204, 204)" stroke-width="1px"></line><line x1="300" y1="0" x2="300" y2="5" style="visibility: inherit;" fill="rgb(0, 0, 0)" stroke="rgb(204, 204, 204)" stroke-width="1px"></line></g><g transform="translate(0, 8)"><text x="0" y="0" dx="0em" dy="0.95em" style="text-anchor: middle; visibility: hidden; font-family: &quot;Helvetica Neue&quot;, sans-serif; font-size: 12px; font-weight: 200;" fill="rgb(50, 49, 63)" stroke="none" stroke-width="1px">-10</text><text x="25" y="0" dx="0em" dy="0.95em" style="text-anchor: middle; visibility: inherit; font-family: &quot;Helvetica Neue&quot;, sans-serif; font-size: 12px; font-weight: 200;" fill="rgb(50, 49, 63)" stroke="none" stroke-width="1px">0</text><text x="50" y="0" dx="0em" dy="0.95em" style="text-anchor: middle; visibility: inherit; font-family: &quot;Helvetica Neue&quot;, sans-serif; font-size: 12px; font-weight: 200;" fill="rgb(50, 49, 63)" stroke="none" stroke-width="1px">10</text><text x="75" y="0" dx="0em" dy="0.95em" style="text-anchor: middle; visibility: inherit; font-family: &quot;Helvetica Neue&quot;, sans-serif; font-size: 12px; font-weight: 200;" fill="rgb(50, 49, 63)" stroke="none" stroke-width="1px">20</text><text x="100" y="0" dx="0em" dy="0.95em" style="text-anchor: middle; visibility: inherit; font-family: &quot;Helvetica Neue&quot;, sans-serif; font-size: 12px; font-weight: 200;" fill="rgb(50, 49, 63)" stroke="none" stroke-width="1px">30</text><text x="125" y="0" dx="0em" dy="0.95em" style="text-anchor: middle; visibility: inherit; font-family: &quot;Helvetica Neue&quot;, sans-serif; font-size: 12px; font-weight: 200;" fill="rgb(50, 49, 63)" stroke="none" stroke-width="1px">40</text><text x="150" y="0" dx="0em" dy="0.95em" style="text-anchor: middle; visibility: inherit; font-family: &quot;Helvetica Neue&quot;, sans-serif; font-size: 12px; font-weight: 200;" fill="rgb(50, 49, 63)" stroke="none" stroke-width="1px">50</text><text x="175" y="0" dx="0em" dy="0.95em" style="text-anchor: middle; visibility: inherit; font-family: &quot;Helvetica Neue&quot;, sans-serif; font-size: 12px; font-weight: 200;" fill="rgb(50, 49, 63)" stroke="none" stroke-width="1px">60</text><text x="200" y="0" dx="0em" dy="0.95em" style="text-anchor: middle; visibility: inherit; font-family: &quot;Helvetica Neue&quot;, sans-serif; font-size: 12px; font-weight: 200;" fill="rgb(50, 49, 63)" stroke="none" stroke-width="1px">70</text><text x="225" y="0" dx="0em" dy="0.95em" style="text-anchor: middle; visibility: inherit; font-family: &quot;Helvetica Neue&quot;, sans-serif; font-size: 12px; font-weight: 200;" fill="rgb(50, 49, 63)" stroke="none" stroke-width="1px">80</text><text x="250" y="0" dx="0em" dy="0.95em" style="text-anchor: middle; visibility: inherit; font-family: &quot;Helvetica Neue&quot;, sans-serif; font-size: 12px; font-weight: 200;" fill="rgb(50, 49, 63)" stroke="none" stroke-width="1px">90</text><text x="275" y="0" dx="0em" dy="0.95em" style="text-anchor: middle; visibility: inherit; font-family: &quot;Helvetica Neue&quot;, sans-serif; font-size: 12px; font-weight: 200;" fill="rgb(50, 49, 63)" stroke="none" stroke-width="1px">100</text><text x="300" y="0" dx="0em" dy="0.95em" style="text-anchor: middle; visibility: hidden; font-family: &quot;Helvetica Neue&quot;, sans-serif; font-size: 12px; font-weight: 200;" fill="rgb(50, 49, 63)" stroke="none" stroke-width="1px">110</text></g><line x1="0" y1="0" x2="300" y2="0" fill="rgb(0, 0, 0)" stroke="rgb(204, 204, 204)" stroke-width="1px"></line></g></g></g></g></svg>