<svg viewBox="0 0 330 200" xmlns="http://www.w3.org/2000/svg"><g><g><g><g><g><line x1="50" y1="178" x2="45" y2="178" style="visibility: inherit;" fill="rgb(0, 0, 0)" stroke="rgb(204, 204, 204)" stroke-width="1px"></line><line x1="50" y1="165.28571428571428" x2="45" y2="165.28571428571428" style="visibility: inherit;" fill="rgb(0, 0, 0)" stroke="rgb(204, 204, 204)" stroke-width="1px"></line><line x1="50" y1="152.57142857142858" x2="45" y2="152.57142857142858" style="visibility: inherit;" fill="rgb(0, 0, 0)" stroke="rgb(204, 204, 204)" stroke-width="1px"></line><line x1="50" y1="139.85714285714286" x2="45" y2="139.85714285714286" style="visibility: inherit;" fill="rgb(0, 0, 0)" stroke="rgb(204, 204, 204)" stroke-width="1px"></line><line x1="50" y1="127.14285714285715" x2="45" y2="127.14285714285715" style="visibility: inherit;" fill="rgb(0, 0, 0)" stroke="rgb(204, 204, 204)" stroke-width="1px"></line><line x1="50" y1="114.42857142857144" x2="45" y2="114.42857142857144" style="visibility: inherit;" fill="rgb(0, 0, 0)" stroke="rgb(204, 204, 204)" stroke-width="1px"></line><line x1="50" y1="101.71428571428574" x2="45" y2="101.71428571428574" style="visibility: inherit;" fill="rgb(0, 0, 0)" stroke="rgb(204, 204, 204)" stroke-width="1px"></line><line x1="50" y1="89.00000000000001" x2="45" y2="89.00000000000001" style="visibility: inherit;" fill="rgb(0, 0, 0)" stroke="rgb(204, 204, 204)" stroke-width="1px"></line><line x1="50" y1="76.28571428571429" x2="45" y2="76.28571428571429" style="visibility: inherit;" fill="rgb(0, 0, 0)" stroke="rgb(204, 204, 204)" stroke-width="1px"></line><line x1="50" y1="63.5714285714286" x2="45" y2="63.5714285714286" style="visibility: inherit;" fill="rgb(0, 0, 0)" stroke="rgb(204, 204, 204)" stroke-width="1px"></line><line x1="50" y1="50.857142857142875" x2="45" y2="50.857142857142875" style="visibility: inherit;" fill="rgb(0, 0, 0)" stroke="rgb(204, 204, 204)" stroke-width="1px"></line><line x1="50" y1="38.14285714285717" x2="45" y2="38.14285714285717" style="visibility: inherit;" fill="rgb(0, 0, 0)" stroke="rgb(204, 204, 204)" stroke-width="1px"></line><line x1="50" y1="25.428571428571445" x2="45" y2="25.428571428571445" style="visibility: inherit;" fill="rgb(0, 0, 0)" stroke="rgb(204, 204, 204)" stroke-width="1px"></line><line x1="50" y1="12.714285714285722" x2="45" y2="12.714285714285722" style="visibility: inherit;" fill="rgb(0, 0, 0)" stroke="rgb(204, 204, 204)" stroke-width="1px"></line><line x1="50" y1="0" x2="45" y2="0" style="visibility: inherit;" fill="rgb(0, 0, 0)" stroke="rgb(204, 204, 204)" stroke-width="1px"></line></g><g transform="translate(40, 0)"><text x="0" y="178" dx="0em" dy="0.3em" style="text-anchor: end; visibility: hidden; font-family: &quot;Helvetica Neue&quot;, sans-serif; font-size: 12px; font-weight: 200;" fill="rgb(50, 49, 63)" stroke="none" stroke-width="1px">0.4</text><text x="0" y="165.28571428571428" dx="0em" dy="0.3em" style="text-anchor: end; visibility: inherit; font-family: &quot;Helvetica Neue&quot;, sans-serif; font-size: 12px; font-weight: 200;" fill="rgb(50, 49, 63)" stroke="none" stroke-width="1px">0.45</text><text x="0" y="152.57142857142858" dx="0em" dy="0.3em" style="text-anchor: end; visibility: hidden; font-family: &quot;Helvetica Neue&quot;, sans-serif; font-size: 12px; font-weight: 200;" fill="rgb(50, 49, 63)" stroke="none" stroke-width="1px">0.5</text><text x="0" y="139.85714285714286" dx="0em" dy="0.3em" style="text-anchor: end; visibility: inherit; font-family: &quot;Helvetica Neue&quot;, sans-serif; font-size: 12px; font-weight: 200;" fill="rgb(50, 49, 63)" stroke="none" stroke-width="1px">0.55</text><text x="0" y="127.14285714285715" dx="0em" dy="0.3em" style="text-anchor: end; visibility: hidden; font-family: &quot;Helvetica Neue&quot;, sans-serif; font-size: 12px; font-weight: 200;" fill="rgb(50, 49, 63)" stroke="none" stroke-width="1px">0.6</text><text x="0" y="114.42857142857144" dx="0em" dy="0.3em" style="text-anchor: end; visibility: inherit; font-family: &quot;Helvetica Neue&quot;, sans-serif; font-size: 12px; font-weight: 200;" fill="rgb(50, 49, 63)" stroke="none" stroke-width="1px">0.65</text><text x="0" y="101.71428571428574" dx="0em" dy="0.3em" style="text-anchor: end; visibility: hidden; font-family: &quot;Helvetica Neue&quot;, sans-serif; font-size: 12px; font-weight: 200;" fill="rgb(50, 49, 63)" stroke="none" stroke-width="1px">0.7</text><text x="0" y="89.00000000000001" dx="0em" dy="0.3em" style="text-anchor: end; visibility: inherit; font-family: &quot;Helvetica Neue&quot;, sans-serif; font-size: 12px; font-weight: 200;" fill="rgb(50, 49, 63)" stroke="none" stroke-width="1px">0.75</text><text x="0" y="76.28571428571429" dx="0em" dy="0.3em" style="text-anchor: end; visibility: hidden; font-family: &quot;Helvetica Neue&quot;, sans-serif; font-size: 12px; font-weight: 200;" fill="rgb(50, 49, 63)" stroke="none" stroke-width="1px">0.8</text><text x="0" y="63.5714285714286" dx="0em" dy="0.3em" style="text-anchor: end; visibility: inherit; font-family: &quot;Helvetica Neue&quot;, sans-serif; font-size: 12px; font-weight: 200;" fill="rgb(50, 49, 63)" stroke="none" stroke-width="1px">0.85</text><text x="0" y="50.857142857142875" dx="0em" dy="0.3em" style="text-anchor: end; visibility: hidden; font-family: &quot;Helvetica Neue&quot;, sans-serif; font-size: 12px; font-weight: 200;" fill="rgb(50, 49, 63)" stroke="none" stroke-width="1px">0.9</text><text x="0" y="38.14285714285717" dx="0em" dy="0.3em" style="text-anchor: end; visibility: inherit; font-family: &quot;Helvetica Neue&quot;, sans-serif; font-size: 12px; font-weight: 200;" fill="rgb(50, 49, 63)" stroke="none" stroke-width="1px">0.95</text><text x="0" y="25.428571428571445" dx="0em" dy="0.3em" style="text-anchor: end; visibility: hidden; font-family: &quot;Helvetica Neue&quot;, sans-serif; font-size: 12px; font-weight: 200;" fill="rgb(50, 49, 63)" stroke="none" stroke-width="1px">1</text><text x="0" y="12.714285714285722" dx="0em" dy="0.3em" style="text-anchor: end; visibility: inherit; font-family: &quot;Helvetica Neue&quot;, sans-serif; font-size: 12px; font-weight: 200;" fill="rgb(50, 49, 63)" stroke="none" stroke-width="1px">1.05</text><text x="0" y="0" dx="0em" dy="0.3em" style="text-anchor: end; visibility: hidden; font-family: &quot;Helvetica Neue&quot;, sans-serif; font-size: 12px; font-weight: 200;" fill="rgb(50, 49, 63)" stroke="none" stroke-width="1px">1.1</text></g><line x1="50" y1="0" x2="50" y2="178" fill="rgb(0, 0, 0)" stroke="rgb(204, 204, 204)" stroke-width="1px"></line></g></g><g transform="translate(50, 0)" clip-path="url(#clip_0)"><clipPath id="clip_0"><rect width="280" height="178"></rect></clipPath><g><g><g><line x1="0" y1="0" x2="0" y2="178" fill="rgb(0, 0, 0)" stroke="rgb(60, 60, 60)" stroke-width="1px" opacity="0.25"></line><line x1="23.333333333333332" y1="0" x2="23.333333333333332" y2="178" fill="rgb(0, 0, 0)" stroke="rgb(60, 60, 60)" stroke-width="1px" opacity="0.25"></line><line x1="46.666666666666664" y1="0" x2="46.666666666666664" y2="178" fill="rgb(0, 0, 0)" stroke="rgb(60, 60, 60)" stroke-width="1px" opacity="0.25"></line><line x1="70" y1="0" x2="70" y2="178" fill="rgb(0, 0, 0)" stroke="rgb(60, 60, 60)" stroke-width="1px" opacity="0.25"></line><line x1="93.33333333333333" y1="0" x2="93.33333333333333" y2="178" fill="rgb(0, 0, 0)" stroke="rgb(60, 60, 60)" stroke-width="1px" opacity="0.25"></line><line x1="116.66666666666667" y1="0" x2="116.66666666666667" y2="178" fill="rgb(0, 0, 0)" stroke="rgb(60, 60, 60)" stroke-width="1px" opacity="0.25"></line><line x1="140" y1="0" x2="140" y2="178" fill="rgb(0, 0, 0)" stroke="rgb(60, 60, 60)" stroke-width="1px" opacity="0.25"></line><line x1="163.33333333333334" y1="0" x2="163.33333333333334" y2="178" fill="rgb(0, 0, 0)" stroke="rgb(60, 60, 60)" stroke-width="1px" opacity="0.25"></line><line x1="186.66666666666666" y1="0" x2="186.66666666666666" y2="178" fill="rgb(0, 0, 0)" stroke="rgb(60, 60, 60)" stroke-width="1px" opacity="0.25"></line><line x1="210" y1="0" x2="210" y2="178" fill="rgb(0, 0, 0)" stroke="rgb(60, 60, 60)" stroke-width="1px" opacity="0.25"></line><line x1="233.33333333333334" y1="0" x2="233.33333333333334" y2="178" fill="rgb(0, 0, 0)" stroke="rgb(60, 60, 60)" stroke-width="1px" opacity="0.25"></line><line x1="256.66666666666663" y1="0" x2="256.66666666666663" y2="178" fill="rgb(0, 0, 0)" stroke="rgb(60, 60, 60)" stroke-width="1px" opacity="0.25"></line><line x1="280" y1="0" x2="280" y2="178" fill="rgb(0, 0, 0)" stroke="rgb(60, 60, 60)" stroke-width="1px" opacity="0.25"></line></g><g><line x1="0" y1="178" x2="280" y2="178" fill="rgb(0, 0, 0)" stroke="rgb(60, 60, 60)" stroke-width="1px" opacity="0.25"></line><line x1="0" y1="165.28571428571428" x2="280" y2="165.28571428571428" fill="rgb(0, 0, 0)" stroke="rgb(60, 60, 60)" stroke-width="1px" opacity="0.25"></line><line x1="0" y1="152.57142857142858" x2="280" y2="152.57142857142858" fill="rgb(0, 0, 0)" stroke="rgb(60, 60, 60)" stroke-width="1px" opacity="0.25"></line><line x1="0" y1="139.85714285714286" x2="280" y2="139.85714285714286" fill="rgb(0, 0, 0)" stroke="rgb(60, 60, 60)" stroke-width="1px" opacity="0.25"></line><line x1="0" y1="127.14285714285715" x2="280" y2="127.14285714285715" fill="rgb(0, 0, 0)" stroke="rgb(60, 60, 60)" stroke-width="1px" opacity="0.25"></line><line x1="0" y1="114.42857142857144" x2="280" y2="114.42857142857144" fill="rgb(0, 0, 0)" stroke="rgb(60, 60, 60)" stroke-width="1px" opacity="0.25"></line><line x1="0" y1="101.71428571428574" x2="280" y2="101.71428571428574" fill="rgb(0, 0, 0)" stroke="rgb(60, 60, 60)" stroke-width="1px" opacity="0.25"></line><line x1="0" y1="89.00000000000001" x2="280" y2="89.00000000000001" fill="rgb(0, 0, 0)" stroke="rgb(60, 60, 60)" stroke-width="1px" opacity="0.25"></line><line x1="0" y1="76.28571428571429" x2="280" y2="76.28571428571429" fill="rgb(0, 0, 0)" stroke="rgb(60, 60, 60)" stroke-width="1px" opacity="0.25"></line><line x1="0" y1="63.5714285714286" x2="280" y2="63.5714285714286" fill="rgb(0, 0, 0)" stroke="rgb(60, 60, 60)" stroke-width="1px" opacity="0.25"></line><line x1="0" y1="50.857142857142875" x2="280" y2="50.857142857142875" fill="rgb(0, 0, 0)" stroke="rgb(60, 60, 60)" stroke-width="1px" opacity="0.25"></line><line x1="0" y1="38.14285714285717" x2="280" y2="38.14285714285717" fill="rgb(0, 0, 0)" stroke="rgb(60, 60, 60)" stroke-width="1px" opacity="0.25"></line><line x1="0" y1="25.428571428571445" x2="280" y2="25.428571428571445" fill="rgb(0, 0, 0)" stroke="rgb(60, 60, 60)" stroke-width="1px" opacity="0.25"></line><line x1="0" y1="12.714285714285722" x2="280" y2="12.714285714285722" fill="rgb(0, 0, 0)" stroke="rgb(60, 60, 60)" stroke-width="1px" opacity="0.25"></line><line x1="0" y1="0" x2="280" y2="0" fill="rgb(0, 0, 0)" stroke="rgb(60, 60, 60)" stroke-width="1px" opacity="0.25"></line></g></g></g><g><g><line x1="0" y1="279.7142857142857" x2="280" y2="279.7142857142857" fill="rgb(0, 0, 0)" stroke="rgb(153, 153, 153)" stroke-width="1.5px"></line></g></g><g><g><line x1="23.333333333333332" y1="0" x2="23.333333333333332" y2="178" fill="rgb(0, 0, 0)" stroke="rgb(153, 153, 153)" stroke-width="1.5px"></line></g></g><g><g><g><g><g><path stroke="rgb(238, 51, 119)" stroke-width="2px" d="M28,178.2185096053879L30.333333333333336,158.43653321523658L32.666666666666664,146.02458864670123L35,141.47149567447605L37.333333333333336,137.7779997159079L39.666666666666664,138.89610746598242L42,138.47324967193668L44.33333333333333,141.45385013913454L46.666666666666664,141.08148688031022L49,136.56688635271215L51.33333333333333,136.00857420938783L53.66666666666667,133.5310245417542L56,134.1880952620064L58.333333333333336,130.2982251817075L60.66666666666667,132.2484368068722L63,133.41835249287718L65.33333333333333,131.97874529906838L67.66666666666667,132.1857513075967L70,140.875550357062L72.33333333333334,141.8065452203998L74.66666666666667,139.1530777691729L77,141.84373719560318L79.33333333333333,142.387446615393L81.66666666666667,139.5016346387353L84,130.27540557980834L86.33333333333334,129.0223830104964L88.66666666666666,130.4119268779724L91,130.1749776016087L93.33333333333333,128.96212683217277L95.66666666666667,127.16374135578215L98,127.15538524515559L100.33333333333333,123.93834638956844L102.66666666666666,125.22014828786145L105,125.98922941273483L107.33333333333334,132.8747404425025L109.66666666666667,144.50078441356453L112,141.84031726685828L114.33333333333333,132.74930568260962L116.66666666666667,130.5067238398524L119,130.23185583098777L121.33333333333334,133.27896012411935L123.66666666666666,129.7538414734668L126,128.70944531605682L128.33333333333331,125.94145755658795L130.66666666666666,124.28066490101708L133,122.21351427521088L135.33333333333334,122.04389893225073L137.66666666666666,119.80077359885604L140,118.45489839883085L142.33333333333331,118.71805437394633L144.66666666666669,122.08797305645899L147,120.89789916852118L149.33333333333334,121.25452986823939L151.66666666666666,120.39783325559034L154,120.95449032048082L156.33333333333334,121.28848455941497L158.66666666666666,121.48888110277545L161,129.10385638143583L163.33333333333334,125.10742916350841L165.66666666666666,123.7802478652315L168,120.84258295866263L170.33333333333331,120.15066510984461L172.66666666666669,124.01822059311539L175,127.40942891555724L177.33333333333331,128.37347887654298L179.66666666666669,128.9519088531344L182,136.79370419173296L184.33333333333334,146.85216261993304L186.66666666666666,155.02859077313389L189,151.36903224860933L191.33333333333334,140.60788474877148L193.66666666666666,133.0805212163894L196,129.63477812943952L198.33333333333334,124.35530111718748L200.66666666666666,122.2582960049595L203,123.14144300258161L205.33333333333331,125.81268732875756L207.66666666666669,127.41543392446314L210,128.37708188188648L212.33333333333331,128.9540706563405L214.66666666666669,128.22958282588962L217,126.72421509513964L219.33333333333334,127.96235058429241L221.66666666666666,128.70523187778406L224,168.7659959663954L226.33333333333334,158.5408003320868L228.66666666666666,143.84027056637856L231,137.16130277191246L233.33333333333334,135.29527822283552L235.66666666666666,132.03430736578665L238,132.21908097916003L240.33333333333331,130.18858901958134L242.66666666666669,124.68758765127254L245,123.52834295788998L247.33333333333331,121.76212110938104L249.66666666666669,121.77306303275509L252,122.85030321925893L254.33333333333334,122.42597229868184" style="fill: none;" fill="none"></path></g><g><path stroke="rgb(51, 187, 238)" stroke-width="2px" d="M23.333333333333332,180.2897757121495L25.666666666666664,141.96991627131192L28,119.09482342369704L30.333333333333336,104.84910290832283L32.666666666666664,95.81877046944643L35,89.41823179862774L37.333333333333336,84.47268744710918L39.666666666666664,80.79874820357637L42,77.11251032087814L44.33333333333333,73.71221159642762L46.666666666666664,69.93141595978972L49,65.55812964074049L51.33333333333333,61.612867046660895L53.66666666666667,57.9826163704771L56,54.480000131853586L58.333333333333336,51.41509461886554L60.66666666666667,49.757511295992856L63,48.10024470967852L65.33333333333333,47.28677335237265L67.66666666666667,46.13586917462624L70,46.28897081182333L72.33333333333334,48.309091032415495L74.66666666666667,51.630168663077995L77,52.5984189806059L79.33333333333333,52.215245489964914L81.66666666666667,49.99684607566928L84,47.94272263733839L86.33333333333334,46.167933967495514L88.66666666666666,45.28383138195343L91,45.777744886827975L93.33333333333333,45.10998085078484L95.66666666666667,44.408033312175405L98,42.90223353430554L100.33333333333333,41.21541160218726L102.66666666666666,41.40846296804901L105,41.5242937854421L107.33333333333334,45.6310281050649L109.66666666666667,49.84252877987859L112,54.7194615095534L114.33333333333333,55.17507557272289L116.66666666666667,51.77274790677927L119,46.05566126932712L121.33333333333334,42.866435758325565L123.66666666666666,39.928525830881426L126,37.20166793343918L128.33333333333331,34.54117857383628L130.66666666666666,33.12565481041699L133,32.21608393498818L135.33333333333334,31.61008479233331L137.66666666666666,31.005452774460338L140,30.281133859278924L142.33333333333331,29.54525336047837L144.66666666666669,28.742185356739725L147,28.260344554497436L149.33333333333334,27.971240073152416L151.66666666666666,27.496488234652304L154,27.21163713155235L156.33333333333334,26.98046985228254L158.66666666666666,26.480223717617747L161,26.18007603681886L163.33333333333334,26.180763343213016L165.66666666666666,26.422202196688858L168,26.44655227395461L170.33333333333331,26.52141893772398L172.66666666666669,26.80736540562495L175,26.858420051545835L177.33333333333331,27.130085371381625L179.66666666666669,27.654624267742122L182,32.12710270798851L184.33333333333334,46.560757482576804L186.66666666666666,62.09027748377828L189,65.98483935381853L191.33333333333334,62.05481551349263L193.66666666666666,55.29801963722767L196,46.543877452350046L198.33333333333334,39.30289951632321L200.66666666666666,34.35574051796482L203,31.086162031900557L205.33333333333331,29.06415226020826L207.66666666666669,27.91120907724661L210,27.098923870006075L212.33333333333331,28.47953213594235L214.66666666666669,29.127121180630695L217,29.033621668164983L219.33333333333334,28.374943661299397L221.66666666666666,27.919480239770166L224,28.188517806185104L226.33333333333334,30.398689588544215L228.66666666666666,30.0978457999623L231,29.19425405525118L233.33333333333334,29.134158010347107L235.66666666666666,29.700672620146946L238,29.196976617001326L240.33333333333331,28.111416926142113L242.66666666666669,27.279305196753228L245,26.65952492430023L247.33333333333331,26.22740014341855L249.66666666666669,25.96812527488953L252,25.81256035377214L254.33333333333334,25.71922140110169" style="fill: none;" fill="none"></path></g></g></g></g><g opacity="0.2"><g><g><g><path stroke="rgb(238, 51, 119)" stroke-width="2px" d="M23.333333333333332,274.36090202629566L25.666666666666664,169.96992816243852L28,148.55639719963074L30.333333333333336,135.17292898041862L32.666666666666664,129.81955381802152L35,135.17292898041862L37.333333333333336,132.49624139922008L39.666666666666664,140.5263192994254L42,137.84961656161718L44.33333333333333,145.8796944618225L46.666666666666664,140.5263192994254L49,129.81955381802152L51.33333333333333,135.17292898041862L53.66666666666667,129.81955381802152L56,135.17292898041862L58.333333333333336,124.46616349901473L60.66666666666667,135.17292898041862L63,135.17292898041862L65.33333333333333,129.81955381802152L67.66666666666667,132.49624139922008L70,153.90977236202787L72.33333333333334,143.20300688062397L74.66666666666667,135.17292898041862L77,145.8796944618225L79.33333333333333,143.20300688062397L81.66666666666667,135.17292898041862L84,116.4360855988094L86.33333333333334,127.14285108021329L88.66666666666666,132.49624139922008L91,129.81955381802152L93.33333333333333,127.14285108021329L95.66666666666667,124.46616349901473L98,127.14285108021329L100.33333333333333,119.11278833661763L102.66666666666666,127.14285108021329L105,127.14285108021329L107.33333333333334,143.20300688062397L109.66666666666667,161.9398502622332L112,137.84961656161718L114.33333333333333,119.11278833661763L116.66666666666667,127.14285108021329L119,129.81955381802152L121.33333333333334,137.84961656161718L123.66666666666666,124.46616349901473L126,127.14285108021329L128.33333333333331,121.78947591781616L130.66666666666666,121.78947591781616L133,119.11278833661763L135.33333333333334,121.78947591781616L137.66666666666666,116.4360855988094L140,116.4360855988094L142.33333333333331,119.11278833661763L144.66666666666669,127.14285108021329L147,119.11278833661763L149.33333333333334,121.78947591781616L151.66666666666666,119.11278833661763L154,121.78947591781616L156.33333333333334,121.78947591781616L158.66666666666666,121.78947591781616L161,140.5263192994254L163.33333333333334,119.11278833661763L165.66666666666666,121.78947591781616L168,116.4360855988094L170.33333333333331,119.11278833661763L172.66666666666669,129.81955381802152L175,132.49624139922008L177.33333333333331,129.81955381802152L179.66666666666669,129.81955381802152L182,148.55639719963074L184.33333333333334,161.9398502622332L186.66666666666666,167.29323300293515L189,145.8796944618225L191.33333333333334,124.46616349901473L193.66666666666666,121.78947591781616L196,124.46616349901473L198.33333333333334,116.4360855988094L200.66666666666666,119.11278833661763L203,124.46616349901473L205.33333333333331,129.81955381802152L207.66666666666669,129.81955381802152L210,129.81955381802152L212.33333333333331,129.81955381802152L214.66666666666669,127.14285108021329L217,124.46616349901473L219.33333333333334,129.81955381802152L221.66666666666666,129.81955381802152L224,228.85714209931237L226.33333333333334,143.20300688062397L228.66666666666666,121.78947591781616L231,127.14285108021329L233.33333333333334,132.49624139922008L235.66666666666666,127.14285108021329L238,132.49624139922008L240.33333333333331,127.14285108021329L242.66666666666669,116.4360855988094L245,121.78947591781616L247.33333333333331,119.11278833661763L249.66666666666669,121.78947591781616L252,124.46616349901473L254.33333333333334,121.78947591781616" style="fill: none;" fill="none"></path></g><g><path stroke="rgb(51, 187, 238)" stroke-width="2px" d="M23.333333333333332,180.2897757121495L25.666666666666664,118.97800060680936L28,97.13473428998677L30.333333333333336,88.0961355822427L32.666666666666664,84.02876843724933L35,80.56398262296405L37.333333333333336,77.40047989572798L39.666666666666664,75.44210951668877L42,71.67602545874462L44.33333333333333,68.66316427503315L46.666666666666664,64.29451404299056L49,59.02199939319067L51.33333333333333,55.707855122430004L53.66666666666667,52.544352395193926L56,49.2301929678236L58.333333333333336,46.81989795821056L60.66666666666667,47.27183774539404L63,45.614765610013706L65.33333333333333,46.06669024058752L67.66666666666667,44.40961810520719L70,46.51861487116133L72.33333333333334,51.33920489038741L74.66666666666667,56.61171954018731L77,54.05078298704967L79.33333333333333,51.640487977436635L81.66666666666667,46.66925641468595L84,44.861542735781L86.33333333333334,43.50575368744987L88.66666666666666,43.95767831802371L91,46.51861487116133L93.33333333333333,44.10833501815799L95.66666666666667,43.35511214392528L98,40.64353404726302L100.33333333333333,38.685178824833486L102.66666666666666,41.69804000854495L105,41.69804000854495L107.33333333333334,51.791129520961235L109.66666666666667,56.159779753003804L112,62.03486057690212L114.33333333333333,55.858496665954604L116.66666666666667,46.66925641468595L119,37.48003132002697L121.33333333333334,38.082597494125395L123.66666666666666,35.52166094098774L126,33.11138108798437L128.33333333333331,30.55044453484672L130.66666666666666,31.00236916542056L133,30.851727621895947L135.33333333333334,30.701086078371333L137.66666666666666,30.09850474766324L140,29.194655486515614L142.33333333333331,28.44143261228291L144.66666666666669,27.537583351135282L147,27.537583351135282L149.33333333333334,27.537583351135282L151.66666666666666,26.784360476902577L154,26.784360476902577L156.33333333333334,26.633718933377963L158.66666666666666,25.729854515620644L161,25.729854515620644L163.33333333333334,26.18179430280415L165.66666666666666,26.784360476902577L168,26.48307738985335L170.33333333333331,26.633718933377963L172.66666666666669,27.23628510747639L175,26.935002020427163L177.33333333333331,27.537583351135282L179.66666666666669,28.44143261228291L182,38.83582036835807L184.33333333333334,68.21123964445934L186.66666666666666,85.38455748558046L189,71.8266821588789L191.33333333333334,56.159779753003804L193.66666666666666,45.16282582283023L196,33.4126641750336L198.33333333333334,28.44143261228291L200.66666666666666,26.935002020427163L203,26.18179430280415L205.33333333333331,26.031137602669872L207.66666666666669,26.18179430280415L210,25.88049605914526L212.33333333333331,30.55044453484672L214.66666666666669,30.09850474766324L217,28.893372399466386L219.33333333333334,27.386926651001005L221.66666666666666,27.23628510747639L224,28.592074155807524L226.33333333333334,33.7139472620828L228.66666666666666,29.646580117089428L231,27.838866438184482L233.33333333333334,29.044013942991L235.66666666666666,30.55044453484672L238,28.44143261228291L240.33333333333331,26.48307738985335L242.66666666666669,26.031137602669872L245,25.729854515620644L247.33333333333331,25.57921297209606L249.66666666666669,25.57921297209606L252,25.57921297209606L254.33333333333334,25.57921297209606" style="fill: none;" fill="none"></path></g></g></g></g></g></g><g transform="translate(50, 178)" clip-path="url(#clip_1)"><clipPath id="clip_1"><rect width="280" height="22"></rect></clipPath><g><g><line x1="0" y1="0" x2="0" y2="5" style="visibility: inherit;" fill="rgb(0, 0, 0)" stroke="rgb(204, 204, 204)" stroke-width="1px"></line><line x1="23.333333333333332" y1="0" x2="23.333333333333332" y2="5" style="visibility: inherit;" fill="rgb(0, 0, 0)" stroke="rgb(204, 204, 204)" stroke-width="1px"></line><line x1="46.666666666666664" y1="0" x2="46.666666666666664" y2="5" style="visibility: inherit;" fill="rgb(0, 0, 0)" stroke="rgb(204, 204, 204)" stroke-width="1px"></line><line x1="70" y1="0" x2="70" y2="5" style="visibility: inherit;" fill="rgb(0, 0, 0)" stroke="rgb(204, 204, 204)" stroke-width="1px"></line><line x1="93.33333333333333" y1="0" x2="93.33333333333333" y2="5" style="visibility: inherit;" fill="rgb(0, 0, 0)" stroke="rgb(204, 204, 204)" stroke-width="1px"></line><line x1="116.66666666666667" y1="0" x2="116.66666666666667" y2="5" style="visibility: inherit;" fill="rgb(0, 0, 0)" stroke="rgb(204, 204, 204)" stroke-width="1px"></line><line x1="140" y1="0" x2="140" y2="5" style="visibility: inherit;" fill="rgb(0, 0, 0)" stroke="rgb(204, 204, 204)" stroke-width="1px"></line><line x1="163.33333333333334" y1="0" x2="163.33333333333334" y2="5" style="visibility: inherit;" fill="rgb(0, 0, 0)" stroke="rgb(204, 204, 204)" stroke-width="1px"></line><line x1="186.66666666666666" y1="0" x2="186.66666666666666" y2="5" style="visibility: inherit;" fill="rgb(0, 0, 0)" stroke="rgb(204, 204, 204)" stroke-width="1px"></line><line x1="210" y1="0" x2="210" y2="5" style="visibility: inherit;" fill="rgb(0, 0, 0)" stroke="rgb(204, 204, 204)" stroke-width="1px"></line><line x1="233.33333333333334" y1="0" x2="233.33333333333334" y2="5" style="visibility: inherit;" fill="rgb(0, 0, 0)" stroke="rgb(204, 204, 204)" stroke-width="1px"></line><line x1="256.66666666666663" y1="0" x2="256.66666666666663" y2="5" style="visibility: inherit;" fill="rgb(0, 0, 0)" stroke="rgb(204, 204, 204)" stroke-width="1px"></line><line x1="280" y1="0" x2="280" y2="5" style="visibility: inherit;" fill="rgb(0, 0, 0)" stroke="rgb(204, 204, 204)" stroke-width="1px"></line></g><g transform="translate(0, 8)"><text x="0" y="0" dx="0em" dy="0.95em" style="text-anchor: middle; visibility: hidden; font-family: &quot;Helvetica Neue&quot;, sans-serif; font-size: 12px; font-weight: 200;" fill="rgb(50, 49, 63)" stroke="none" stroke-width="1px">-10</text><text x="23.333333333333332" y="0" dx="0em" dy="0.95em" style="text-anchor: middle; visibility: inherit; font-family: &quot;Helvetica Neue&quot;, sans-serif; font-size: 12px; font-weight: 200;" fill="rgb(50, 49, 63)" stroke="none" stroke-width="1px">0</text><text x="46.666666666666664" y="0" dx="0em" dy="0.95em" style="text-anchor: middle; visibility: inherit; font-family: &quot;Helvetica Neue&quot;, sans-serif; font-size: 12px; font-weight: 200;" fill="rgb(50, 49, 63)" stroke="none" stroke-width="1px">10</text><text x="70" y="0" dx="0em" dy="0.95em" style="text-anchor: middle; visibility: inherit; font-family: &quot;Helvetica Neue&quot;, sans-serif; font-size: 12px; font-weight: 200;" fill="rgb(50, 49, 63)" stroke="none" stroke-width="1px">20</text><text x="93.33333333333333" y="0" dx="0em" dy="0.95em" style="text-anchor: middle; visibility: inherit; font-family: &quot;Helvetica Neue&quot;, sans-serif; font-size: 12px; font-weight: 200;" fill="rgb(50, 49, 63)" stroke="none" stroke-width="1px">30</text><text x="116.66666666666667" y="0" dx="0em" dy="0.95em" style="text-anchor: middle; visibility: inherit; font-family: &quot;Helvetica Neue&quot;, sans-serif; font-size: 12px; font-weight: 200;" fill="rgb(50, 49, 63)" stroke="none" stroke-width="1px">40</text><text x="140" y="0" dx="0em" dy="0.95em" style="text-anchor: middle; visibility: inherit; font-family: &quot;Helvetica Neue&quot;, sans-serif; font-size: 12px; font-weight: 200;" fill="rgb(50, 49, 63)" stroke="none" stroke-width="1px">50</text><text x="163.33333333333334" y="0" dx="0em" dy="0.95em" style="text-anchor: middle; visibility: inherit; font-family: &quot;Helvetica Neue&quot;, sans-serif; font-size: 12px; font-weight: 200;" fill="rgb(50, 49, 63)" stroke="none" stroke-width="1px">60</text><text x="186.66666666666666" y="0" dx="0em" dy="0.95em" style="text-anchor: middle; visibility: inherit; font-family: &quot;Helvetica Neue&quot;, sans-serif; font-size: 12px; font-weight: 200;" fill="rgb(50, 49, 63)" stroke="none" stroke-width="1px">70</text><text x="210" y="0" dx="0em" dy="0.95em" style="text-anchor: middle; visibility: inherit; font-family: &quot;Helvetica Neue&quot;, sans-serif; font-size: 12px; font-weight: 200;" fill="rgb(50, 49, 63)" stroke="none" stroke-width="1px">80</text><text x="233.33333333333334" y="0" dx="0em" dy="0.95em" style="text-anchor: middle; visibility: inherit; font-family: &quot;Helvetica Neue&quot;, sans-serif; font-size: 12px; font-weight: 200;" fill="rgb(50, 49, 63)" stroke="none" stroke-width="1px">90</text><text x="256.66666666666663" y="0" dx="0em" dy="0.95em" style="text-anchor: middle; visibility: inherit; font-family: &quot;Helvetica Neue&quot;, sans-serif; font-size: 12px; font-weight: 200;" fill="rgb(50, 49, 63)" stroke="none" stroke-width="1px">100</text><text x="280" y="0" dx="0em" dy="0.95em" style="text-anchor: middle; visibility: hidden; font-family: &quot;Helvetica Neue&quot;, sans-serif; font-size: 12px; font-weight: 200;" fill="rgb(50, 49, 63)" stroke="none" stroke-width="1px">110</text></g><line x1="0" y1="0" x2="280" y2="0" fill="rgb(0, 0, 0)" stroke="rgb(204, 204, 204)" stroke-width="1px"></line></g></g></g></g></svg>